<svg width="48" height="48" viewBox="0 0 48 48" fill="none" xmlns="http://www.w3.org/2000/svg">
<path d="M25.88 36H6C4.9 36 4 35.1 4 34V14C4 12.9 4.9 12 6 12H25.88H15.44H33.06C33.66 12 34.22 12.26 34.6 12.72L44 24L34.6 35.28C34.22 35.74 33.66 36 33.06 36H15.44" fill="black"/>
<path d="M30 28C32.2092 28 34 26.2092 34 24C34 21.7908 32.2092 20 30 20C27.7908 20 26 21.7908 26 24C26 26.2092 27.7908 28 30 28Z" fill="black"/>
<path d="M30 28C32.2092 28 34 26.2092 34 24C34 21.7908 32.2092 20 30 20C27.7908 20 26 21.7908 26 24C26 26.2092 27.7908 28 30 28Z" stroke="white" stroke-width="2" stroke-miterlimit="10" stroke-linecap="round" stroke-linejoin="round"/>
</svg>
