<svg width="119" height="30" viewBox="0 0 119 30" fill="none" xmlns="http://www.w3.org/2000/svg">
<path d="M101.131 25.5396C101.675 25.5396 102.135 25.3513 102.512 24.9747C102.909 24.5772 103.118 24.1065 103.139 23.5626V6.0831C103.077 5.35087 102.731 4.80692 102.104 4.45127C101.79 4.2839 101.466 4.20021 101.131 4.20021H100.723V3.8864H112.742C113.391 3.8864 114.102 3.82364 114.876 3.69811C115.65 3.57259 116.194 3.44706 116.508 3.32153V8.81328H116.194V8.43671C116.194 7.49526 115.912 6.74211 115.347 6.17724C114.803 5.59146 114.06 5.27764 113.119 5.2358H107.846V14.3678H111.989C112.763 14.3469 113.401 14.0854 113.903 13.5833C114.405 13.0602 114.656 12.4221 114.656 11.669V11.3866H114.97V18.6357H114.656V18.3846C114.656 17.3386 114.238 16.5645 113.401 16.0624C112.983 15.8323 112.522 15.7067 112.02 15.6858H107.846V24.504H111.957C113.485 24.504 114.761 24.0647 115.786 23.186C116.832 22.3073 117.606 21.0625 118.108 19.4516H118.422L116.978 25.8534H100.723V25.5396H101.131Z" fill="black"/>
<path d="M82.291 25.5397C82.835 25.5397 83.2952 25.3514 83.6718 24.9748C84.0693 24.5773 84.2785 24.1066 84.2994 23.5626V6.17732C84.2785 5.63337 84.0693 5.17311 83.6718 4.79654C83.2952 4.39904 82.835 4.20029 82.291 4.20029H81.8831V3.88647H91.423L91.3916 4.20029H91.0151C90.4711 4.20029 90.0004 4.39904 89.6029 4.79654C89.2054 5.17311 89.0066 5.63337 89.0066 6.17732V24.5041H93.1176C94.6448 24.5041 95.921 24.0647 96.9461 23.1861C97.9922 22.3074 98.7663 21.0626 99.2684 19.4517H99.5822L98.1386 25.8535H81.8831V25.5397H82.291Z" fill="black"/>
<path d="M62.9302 25.5396C63.4741 25.5396 63.9344 25.3513 64.311 24.9747C64.7085 24.5772 64.9177 24.1065 64.9386 23.5626V6.0831C64.8758 5.35087 64.5306 4.80692 63.903 4.45127C63.5892 4.2839 63.2649 4.20021 62.9302 4.20021H62.5222V3.8864H74.5413C75.1899 3.8864 75.9012 3.82364 76.6752 3.69811C77.4493 3.57259 77.9933 3.44706 78.3071 3.32153V8.81328H77.9933V8.43671C77.9933 7.49526 77.7108 6.74211 77.146 6.17724C76.602 5.59146 75.8593 5.27764 74.9179 5.2358H69.6458V14.3678H73.7882C74.5622 14.3469 75.2003 14.0854 75.7024 13.5833C76.2045 13.0602 76.4556 12.4221 76.4556 11.669V11.3866H76.7694V18.6357H76.4556V18.3846C76.4556 17.3386 76.0372 16.5645 75.2003 16.0624C74.7819 15.8323 74.3216 15.7067 73.8195 15.6858H69.6458V24.504H73.7568C75.284 24.504 76.5602 24.0647 77.5853 23.186C78.6314 22.3073 79.4054 21.0625 79.9075 19.4516H80.2213L78.7778 25.8534H62.5222V25.5396H62.9302Z" fill="black"/>
<path d="M43.5693 25.5396C44.1133 25.5396 44.5735 25.3513 44.9501 24.9747C45.3476 24.5772 45.5568 24.1065 45.5777 23.5626V6.0831C45.515 5.35087 45.1698 4.80692 44.5422 4.45127C44.2283 4.2839 43.9041 4.20021 43.5693 4.20021H43.1614V3.8864H55.1805C55.829 3.8864 56.5403 3.82364 57.3144 3.69811C58.0885 3.57259 58.6324 3.44706 58.9462 3.32153V8.81328H58.6324V8.43671C58.6324 7.49526 58.35 6.74211 57.7851 6.17724C57.2412 5.59146 56.4985 5.27764 55.557 5.2358H50.285V14.3678H54.4273C55.2014 14.3469 55.8395 14.0854 56.3416 13.5833C56.8437 13.0602 57.0947 12.4221 57.0947 11.669V11.3866H57.4085V18.6357H57.0947V18.3846C57.0947 17.3386 56.6763 16.5645 55.8395 16.0624C55.4211 15.8323 54.9608 15.7067 54.4587 15.6858H50.285V24.504H54.3959C55.9232 24.504 57.1993 24.0647 58.2245 23.186C59.2705 22.3073 60.0446 21.0625 60.5467 19.4516H60.8605L59.417 25.8534H43.1614V25.5396H43.5693Z" fill="black"/>
<path d="M34.0917 5.17268V23.5936C34.1126 24.1375 34.3114 24.5978 34.688 24.9744C35.0855 25.3509 35.5562 25.5392 36.1001 25.5392H36.4767L36.5081 25.853H26.9681V25.5392H27.3761C27.8991 25.5392 28.3489 25.3509 28.7255 24.9744C29.123 24.5978 29.3427 24.148 29.3845 23.625V5.17268H25.148C24.1856 5.1936 23.422 5.49696 22.8572 6.08274C22.2923 6.66853 22.0099 7.43214 22.0099 8.37359V8.75017H21.696V3.28979C21.9889 3.41532 22.512 3.54085 23.2651 3.66637C24.0392 3.7919 24.7505 3.85466 25.3991 3.85466H38.0458C39.0709 3.83374 39.9077 3.75006 40.5563 3.60361C41.2048 3.45716 41.6023 3.35256 41.7488 3.28979V8.75017H41.435V8.37359C41.435 7.43214 41.1525 6.66853 40.5877 6.08274C40.0228 5.49696 39.2592 5.1936 38.2968 5.17268H34.0917Z" fill="black"/>
<path d="M2.46224 15.57C1.49665 17.1149 1.01386 18.6961 1.01386 20.3134C1.01386 22.0756 1.65356 23.6809 2.93296 25.1293C3.633 25.95 4.5141 26.5897 5.57624 27.0484C6.66252 27.507 7.84536 27.7364 9.12475 27.7364C10.4042 27.7364 11.5508 27.495 12.5646 27.0122C14.5924 26.0224 15.6062 24.4051 15.6062 22.1601C15.6062 21.3152 15.3166 20.4221 14.7372 19.4806C14.182 18.5392 13.3371 17.6943 12.2025 16.946L6.04696 12.8181C3.65714 11.3215 2.46224 9.39029 2.46224 7.02461C2.46224 6.78322 2.4743 6.54182 2.49844 6.30043C2.64328 4.44168 3.37954 2.93296 4.70721 1.77426C6.05903 0.591419 7.85743 0 10.1024 0C11.4784 0 13.144 0.120698 15.0993 0.362093H17.3443L16.8736 5.68487H16.5477C16.5235 4.42961 16.0407 3.42782 15.0993 2.67949C14.1579 1.90702 12.9147 1.52079 11.3697 1.52079C9.48685 1.52079 8.12296 2.08807 7.27808 3.22263C6.86771 3.80198 6.66252 4.42961 6.66252 5.10552C6.66252 5.78143 6.86771 6.36077 7.27808 6.84357C7.68845 7.30222 8.34022 7.80915 9.23338 8.36436L16.0045 12.7819C17.3805 13.6751 18.4547 14.7251 19.2272 15.9321C20.1445 17.3563 20.6031 18.8168 20.6031 20.3134C20.6031 21.279 20.3979 22.305 19.9876 23.3912C19.6013 24.4534 18.9496 25.4431 18.0323 26.3604C17.1391 27.2777 15.9804 28.026 14.5562 28.6054C13.1319 29.1847 11.5508 29.4744 9.81273 29.4744C8.09882 29.4744 6.54182 29.1727 5.14173 28.5692C2.55879 27.4829 0.917303 25.5879 0.217256 22.8843C0.0724187 22.305 0 21.7015 0 21.0738C0 19.0461 0.712117 17.127 2.13635 15.3166L2.46224 15.57Z" fill="black"/>
</svg>
